<svg width="800" height="400" viewBox="0 0 800 400" fill="none" xmlns="http://www.w3.org/2000/svg">
  <rect width="800" height="400" fill="#1a1a1a"/>
  <path d="M0 400L0 250L50 250L50 200L100 200L100 250L150 250L150 200L200 200L200 250L250 250L250 200L300 200L300 250L350 250L350 200L400 200L400 250L450 250L450 200L500 200L500 250L550 250L550 200L600 200L600 250L650 250L650 200L700 200L700 250L750 250L750 200L800 200L800 400Z" fill="#333333"/>
  <path d="M100 200L100 150L150 150L150 100L200 100L200 150L250 150L250 100L300 100L300 150L350 150L350 100L400 100L400 150L450 150L450 100L500 100L500 150L550 150L550 100L600 100L600 150L650 150L650 100L700 100L700 150L750 150L750 100L800 100L800 150L800 200L750 200L750 150L700 150L700 200L650 200L650 150L600 150L600 200L550 200L550 150L500 150L500 200L450 200L450 150L400 150L400 200L350 200L350 150L300 150L300 200L250 200L250 150L200 150L200 200L150 200L150 150L100 150L100 200Z" fill="#222222"/>
  <path d="M200 100L200 50L250 50L250 0L300 0L300 50L350 50L350 0L400 0L400 50L450 50L450 0L500 0L500 50L550 50L550 0L600 0L600 50L600 100L550 100L550 50L500 50L500 100L450 100L450 50L400 50L400 100L350 100L350 50L300 50L300 100L250 100L250 50L200 50L200 100Z" fill="#111111"/>
</svg>